<svg width="24" height="25" viewBox="0 0 24 25" fill="none" xmlns="http://www.w3.org/2000/svg">
<g clip-path="url(#clip0_1874_2001)">
<g clip-path="url(#clip1_1874_2001)">
<path d="M11.4346 12.1625C11.1941 12.1625 10.9583 12.0683 10.7807 11.8906L8.78402 9.89426L6.78738 11.8906C6.52113 12.1564 6.12504 12.2354 5.77793 12.0915C5.60845 12.0216 5.46358 11.9029 5.36175 11.7505C5.25991 11.5981 5.20572 11.4188 5.20606 11.2355V2.50723C5.20606 2.16621 5.48262 1.88965 5.82363 1.88965H11.7444C12.0854 1.88965 12.362 2.16621 12.362 2.50723V11.2353C12.362 11.6115 12.1375 11.9476 11.7901 12.0912C11.6775 12.1383 11.5566 12.1625 11.4346 12.1625ZM8.78402 8.5309C9.03176 8.5309 9.26449 8.62746 9.43934 8.80254L11.1268 10.4898V3.12504H6.44098V10.49L8.12871 8.80231C8.30379 8.62723 8.53653 8.5309 8.78402 8.5309Z" fill="#828CFF"/>
<path d="M2.11758 20.7277C1.77656 20.7277 1.5 20.4513 1.5 20.1101V4.6691C1.5 3.13652 2.74687 1.88965 4.27945 1.88965H19.7205C21.2531 1.88965 22.5 3.13652 22.5 4.6691V17.9485C22.5 18.2895 22.2234 18.5661 21.8824 18.5661H4.27945C3.42797 18.5661 2.73539 19.2589 2.73539 20.1101C2.73539 20.4515 2.45883 20.7277 2.11758 20.7277ZM4.27945 3.12504C3.42797 3.12504 2.73539 3.81785 2.73539 4.6691V17.8001C3.17742 17.5039 3.70852 17.3307 4.27945 17.3307H21.2648V4.6691C21.2648 3.81762 20.572 3.12504 19.7208 3.12504H4.27945Z" fill="#828CFF"/>
<path d="M21.8824 22.89H4.27945C2.74687 22.89 1.5 21.6431 1.5 20.1105C1.5 18.5779 2.74687 17.3311 4.27945 17.3311H21.8824C22.2234 17.3311 22.5 17.6076 22.5 17.9486C22.5 18.2897 22.2234 18.5662 21.8824 18.5662C21.0309 18.5662 20.3384 19.259 20.3384 20.1103C20.3384 20.9618 21.0312 21.6543 21.8824 21.6543C22.2234 21.6543 22.5 21.9309 22.5 22.2719C22.5 22.6134 22.2234 22.89 21.8824 22.89ZM4.27945 18.5665C3.42797 18.5665 2.73539 19.2593 2.73539 20.1105C2.73539 20.962 3.4282 21.6546 4.27945 21.6546H19.5724C19.2762 21.2125 19.103 20.6815 19.103 20.1105C19.103 19.5396 19.2762 19.0085 19.5724 18.5665H4.27945Z" fill="#828CFF"/>
</g>
</g>
<defs>
<clipPath id="clip0_1874_2001">
<rect width="24" height="24" fill="white" transform="translate(0 0.389648)"/>
</clipPath>
<clipPath id="clip1_1874_2001">
<rect width="24" height="24" fill="white" transform="translate(0 0.389648)"/>
</clipPath>
</defs>
</svg>
