<svg width="24" height="25" viewBox="0 0 24 25" fill="none" xmlns="http://www.w3.org/2000/svg">
<g clip-path="url(#clip0_1874_2044)">
<g clip-path="url(#clip1_1874_2044)">
<path d="M20.75 6.38965H17V5.03965C16.95 4.08965 16.15 3.38965 15.2 3.38965H8.2C7.25 3.43965 6.5 4.18965 6.5 5.13965V6.38965H3.25C2.3 6.38965 1.5 7.18965 1.5 8.13965V19.6396C1.5 20.5896 2.3 21.3896 3.25 21.3896H20.75C21.7 21.3896 22.5 20.5896 22.5 19.6396V8.13965C22.5 7.18965 21.7 6.38965 20.75 6.38965ZM8 5.13965C8.05 4.98965 8.15 4.88965 8.3 4.88965H15.25C15.4 4.88965 15.5 5.03965 15.5 5.13965V6.38965H8V5.13965ZM3.25 7.88965H20.75C20.9 7.88965 21 7.98965 21 8.13965V11.1396H3V8.13965C3 7.98965 3.1 7.88965 3.25 7.88965ZM9.75 12.6396H14.25V13.8896C14.25 14.0396 14.15 14.1396 14 14.1396H10C9.85 14.1396 9.75 14.0396 9.75 13.8896V12.6396ZM20.75 19.8896H3.25C3.1 19.8896 3 19.7896 3 19.6396V12.6396H8.25V13.8896C8.25 14.8396 9.05 15.6396 10 15.6396H14C14.95 15.6396 15.75 14.8396 15.75 13.8896V12.6396H21V19.6396C21 19.7896 20.9 19.8896 20.75 19.8896Z" fill="#828CFF"/>
</g>
</g>
<defs>
<clipPath id="clip0_1874_2044">
<rect width="24" height="24" fill="white" transform="translate(0 0.389648)"/>
</clipPath>
<clipPath id="clip1_1874_2044">
<rect width="24" height="24" fill="white" transform="translate(0 0.389648)"/>
</clipPath>
</defs>
</svg>
