<svg width="24" height="25" viewBox="0 0 24 25" fill="none" xmlns="http://www.w3.org/2000/svg">
<g clip-path="url(#clip0_1874_2022)">
<g clip-path="url(#clip1_1874_2022)">
<g clip-path="url(#clip2_1874_2022)">
<mask id="mask0_1874_2022" style="mask-type:luminance" maskUnits="userSpaceOnUse" x="0" y="0" width="24" height="25">
<path d="M24 0.389648H0V24.3896H24V0.389648Z" fill="white"/>
</mask>
<g mask="url(#mask0_1874_2022)">
<path d="M20.3735 9.8558C19.1717 7.86538 19.397 6.47584 19.397 6.40073C19.4232 6.26912 19.4124 6.13285 19.3661 6.00694C19.3197 5.88103 19.2394 5.77038 19.1341 5.68719C19.0265 5.59634 18.8954 5.5376 18.756 5.51768C18.6165 5.49776 18.4743 5.51745 18.3455 5.57452C17.8101 5.87145 17.3409 6.27434 16.9664 6.7586C16.5919 7.24286 16.32 7.79834 16.1673 8.39115C16.013 8.90517 15.9124 9.43375 15.8668 9.96847C15.6415 9.59292 15.4537 9.21737 15.3035 8.91693C13.6886 5.4243 14.4398 1.36835 14.4773 1.29324C14.4982 1.16496 14.4888 1.03357 14.4496 0.909628C14.4105 0.785691 14.3428 0.672677 14.252 0.57969C14.1582 0.491727 14.0421 0.431202 13.9162 0.404713C13.7904 0.378223 13.6597 0.386787 13.5384 0.42947C13.3507 0.504579 8.73141 1.89412 7.67986 7.71516C7.35836 9.55933 7.40942 11.4492 7.83008 13.2733C7.30122 12.8899 6.85432 12.4047 6.51565 11.8462C6.05623 10.9867 5.69107 10.0802 5.42656 9.14226C5.39154 8.99451 5.31257 8.86084 5.20005 8.75887C5.08753 8.65691 4.94676 8.59145 4.79628 8.57111C4.6458 8.55078 4.49271 8.57653 4.35716 8.64497C4.22162 8.71341 4.11 8.82132 4.03703 8.95448C3.96192 9.06715 2.23438 12.1842 2.23438 15.0384C2.23438 20.4463 6.25277 24.3896 11.9236 24.3896C17.5944 24.3896 21.763 20.4463 21.763 15.0384C21.763 12.8226 21.4626 11.6584 20.3735 9.8558ZM11.9236 22.9249C7.11654 22.9249 3.73658 19.6201 3.73658 15.0759C3.78894 13.7974 4.06871 12.5384 4.56279 11.358C4.74538 11.8101 4.95869 12.2493 5.20124 12.6724C6.03889 13.9702 7.29924 14.9387 8.76896 15.4139C8.90297 15.444 9.04247 15.4391 9.17402 15.3996C9.30557 15.3601 9.42474 15.2875 9.52006 15.1886C9.60686 15.0865 9.6662 14.9639 9.69248 14.8325C9.71877 14.7011 9.71113 14.5651 9.67028 14.4375C9.67028 14.3999 8.50607 11.2077 9.10697 8.0156C9.70785 4.74831 11.6231 3.13344 12.8624 2.41989C12.7498 4.07232 12.7122 6.92651 13.9515 9.55536C14.5307 10.6816 15.1961 11.7615 15.942 12.7851C16.038 12.9166 16.1741 13.0134 16.3299 13.0608C16.4857 13.1082 16.6527 13.1037 16.8057 13.0479C16.957 12.9918 17.0861 12.8884 17.1741 12.7531C17.262 12.6179 17.304 12.4579 17.2939 12.2968C17.2386 11.1224 17.3524 9.94624 17.6319 8.80426C17.7274 8.49229 17.8532 8.19041 18.0075 7.90294C18.2062 8.8738 18.5749 9.8019 19.0966 10.6444C20.0355 12.2217 20.2608 13.123 20.2608 15.0759C20.2608 19.6201 16.7682 22.9249 11.9236 22.9249Z" fill="#FA7378"/>
</g>
</g>
</g>
</g>
<defs>
<clipPath id="clip0_1874_2022">
<rect width="24" height="24" fill="white" transform="translate(0 0.389648)"/>
</clipPath>
<clipPath id="clip1_1874_2022">
<rect width="24" height="24" fill="white" transform="translate(0 0.389648)"/>
</clipPath>
<clipPath id="clip2_1874_2022">
<rect width="24" height="24" fill="white" transform="translate(0 0.389648)"/>
</clipPath>
</defs>
</svg>
