<svg width="24" height="25" viewBox="0 0 24 25" fill="none" xmlns="http://www.w3.org/2000/svg">
<g clip-path="url(#clip0_1874_2050)">
<g clip-path="url(#clip1_1874_2050)">
<path d="M20.8963 6.69734L23.1564 4.43646L22.5891 3.86909L22.5801 3.86009L21.8312 3.11084L11.9972 12.9486L8.5359 9.48621L7.21102 10.8118L11.9972 15.5998L19.4038 8.18984C19.7706 9.99584 18.9658 11.6702 17.6781 13.0041C15.7798 14.9702 13.8862 16.941 11.9976 18.9163C6.1404 12.7918 4.3404 11.5866 4.50727 8.79321C4.76002 4.53996 10.5459 3.96846 11.0619 7.89996C11.1808 8.80971 12.7101 9.00921 12.9321 7.90596C12.9861 7.63896 13.2096 5.27346 15.8886 5.27346C16.3539 5.27346 16.8317 5.37321 17.2742 5.54834L18.6778 4.14396C16.5669 2.94396 13.5516 3.09809 11.9972 5.23296C10.2654 2.85509 6.6984 2.91696 4.57815 4.64646C2.47815 6.35796 1.36252 10.5726 4.96815 14.3068C8.48902 17.9533 11.9976 21.6317 11.9976 21.6317C11.9976 21.6317 15.5053 17.953 19.0262 14.3068C21.1022 12.1566 21.4404 10.0611 21.3583 8.68184C21.316 7.99933 21.1599 7.32833 20.8963 6.69734Z" fill="#6EC878"/>
</g>
</g>
<defs>
<clipPath id="clip0_1874_2050">
<rect width="24" height="24" fill="white" transform="translate(0 0.389648)"/>
</clipPath>
<clipPath id="clip1_1874_2050">
<rect width="24" height="24" fill="white" transform="translate(0 0.389648)"/>
</clipPath>
</defs>
</svg>
