<svg width="24" height="25" viewBox="0 0 24 25" fill="none" xmlns="http://www.w3.org/2000/svg">
<g clip-path="url(#clip0_1874_2016)">
<g clip-path="url(#clip1_1874_2016)">
<path d="M20.7375 4.65116C20.1794 4.09186 19.5163 3.64833 18.7862 3.34604C18.0562 3.04375 17.2736 2.88865 16.4835 2.88965C14.9435 2.88965 13.4035 3.47716 12.2285 4.65116L12 4.88015L7.56 9.31866L6.9225 9.95516L8.3405 11.3727L8.9775 10.7357L13.4175 6.29765L13.6465 6.06916C14.0182 5.69546 14.4603 5.39919 14.9473 5.1975C15.4343 4.99581 15.9564 4.89271 16.4835 4.89416C17.5545 4.89416 18.5615 5.31116 19.3195 6.06916C20.8835 7.63216 20.8835 10.1757 19.3195 11.7387L19.0905 11.9677L12 19.0552L6.3275 13.3847L4.91 11.9672L4.6805 11.7387C4.26987 11.3275 3.95416 10.8314 3.7555 10.2852L3.732 10.2147C3.68641 10.0835 3.64786 9.94995 3.6165 9.81466C3.6085 9.78166 3.599 9.74916 3.5915 9.71616C3.55867 9.55471 3.53579 9.39141 3.523 9.22716C3.52 9.18916 3.5195 9.15116 3.518 9.11316C3.5109 8.97759 3.51056 8.84175 3.517 8.70616C3.5185 8.66616 3.5195 8.62716 3.5225 8.58716C3.535 8.42366 3.5575 8.26066 3.5905 8.09866C3.5965 8.06766 3.6055 8.03716 3.613 8.00616C3.644 7.87016 3.682 7.73616 3.728 7.60366C3.742 7.56266 3.755 7.52166 3.7705 7.48116C3.8295 7.32516 3.8965 7.17066 3.9755 7.02116C3.9855 7.00266 3.9975 6.98566 4.0075 6.96766C4.10374 6.79378 4.21305 6.62747 4.3345 6.47016C4.44084 6.32898 4.55642 6.19502 4.6805 6.06916C4.96019 5.7889 5.27961 5.55135 5.6285 5.36415C6.09054 5.11715 6.59697 4.9642 7.1185 4.91416C7.25 4.90116 7.383 4.89416 7.5165 4.89416C7.6435 4.89416 7.77 4.90116 7.8945 4.91266C7.9385 4.91666 7.981 4.92415 8.0245 4.92965C8.1045 4.94015 8.185 4.95065 8.2645 4.96565C8.316 4.97516 8.3665 4.98816 8.4175 4.99965C8.4875 5.01565 8.5565 5.03166 8.6245 5.05116C8.6785 5.06666 8.731 5.08416 8.7835 5.10116C8.8215 5.11416 8.86 5.12365 8.8975 5.13715L10.401 3.62865C9.9725 3.39415 9.521 3.21865 9.058 3.09565C9.0075 3.08215 8.957 3.07065 8.9065 3.05865C8.7305 3.01665 8.553 2.98365 8.375 2.95765C8.316 2.94915 8.257 2.93915 8.198 2.93265C7.97182 2.90555 7.74429 2.8912 7.5165 2.88965C5.9765 2.88965 4.437 3.47716 3.2625 4.65116C0.9125 7.00016 0.9125 10.8077 3.2625 13.1562L3.4915 13.3852L12 21.8897L20.5085 13.3847L20.7375 13.1567C23.0875 10.8077 23.0875 6.99966 20.7375 4.65116Z" fill="#FFAF19"/>
</g>
</g>
<defs>
<clipPath id="clip0_1874_2016">
<rect width="24" height="24" fill="white" transform="translate(0 0.389648)"/>
</clipPath>
<clipPath id="clip1_1874_2016">
<rect width="24" height="24" fill="white" transform="translate(0 0.389648)"/>
</clipPath>
</defs>
</svg>
