<svg width="24" height="25" viewBox="0 0 24 25" fill="none" xmlns="http://www.w3.org/2000/svg">
<g clip-path="url(#clip0_1874_1976)">
<g clip-path="url(#clip1_1874_1976)">
<path d="M1 10.4894C0.5 10.4894 0.1 10.0894 0 9.5894C0 9.3894 0 9.0894 0 8.8894C0 8.6894 0 8.4894 0 8.2894V8.0894C0 7.7894 0.1 7.4894 0.2 7.1894C0.5 6.1894 0.9 5.3894 1.5 4.6894C1.6 4.5894 1.6 4.5894 1.7 4.4894C2.9 3.1894 4.6 2.3894 6.5 2.3894C10.1 2.3894 13 5.2894 13 8.8894C13 9.4894 12.6 9.8894 12 9.8894C11.4 9.8894 11 9.4894 11 8.8894C11 6.3894 9 4.3894 6.5 4.3894C5.2 4.3894 4 4.8894 3.2 5.8894C3.2 5.8894 3.2 5.8894 3.2 5.9894C2.8 6.4894 2.5 6.9894 2.3 7.6894C2.1 7.8894 2.1 7.9894 2.1 8.1894V8.4894C2.1 8.5894 2.1 8.7894 2.1 8.8894C2.1 9.0894 2.1 9.1894 2.1 9.2894C2.2 9.7894 1.8 10.2894 1.2 10.3894C1.1 10.4894 1.1 10.4894 1 10.4894Z" fill="#FA7378"/>
<path d="M23 10.4894H22.9C22.3 10.3894 21.9 9.8894 22 9.3894C22 9.1894 22 9.0894 22 8.8894C22 8.7894 22 8.5894 22 8.4894V8.2894V8.1894C22 7.9894 21.9 7.8894 21.9 7.6894C21.7 6.9894 21.4 6.4894 21 5.9894C21 5.9894 21 5.9894 20.9 5.8894C20 4.8894 18.8 4.3894 17.5 4.3894C15 4.3894 13 6.3894 13 8.8894C13 9.4894 12.6 9.8894 12 9.8894C11.4 9.8894 11 9.4894 11 8.8894C11 5.2894 13.9 2.3894 17.5 2.3894C19.4 2.3894 21.1 3.1894 22.4 4.5894C22.4 4.5894 22.4 4.5894 22.5 4.6894C23.1 5.3894 23.5 6.1894 23.8 7.0894C23.9 7.2894 23.9 7.5894 24 7.8894V7.9894V8.1894C24 8.3894 24 8.5894 24 8.8894C24 9.0894 24 9.2894 24 9.5894C23.9 10.0894 23.5 10.4894 23 10.4894Z" fill="#FA7378"/>
<path d="M12 22.3894C7.7 22.3894 0.5 15.4894 0 9.48945C0 9.28945 0 9.08945 0 8.88945C0 8.68945 0 8.48945 0 8.28945V8.08945C0.1 7.68945 0.2 7.38945 0.3 7.08945C0.4 6.78945 0.5 6.48945 0.6 6.28945C0.7 5.98945 0.8 5.68945 1 5.48945L1.2 5.18945C1.4 4.98945 1.5 4.78945 1.6 4.68945C2 4.28945 2.6 4.28945 3 4.58945C3.4 4.98945 3.4 5.58945 3.1 5.98945C3 5.98945 3 6.08945 2.9 6.18945L2.7 6.48945C2.6 6.68945 2.5 6.88945 2.4 7.08945C2.3 7.28945 2.2 7.48945 2.2 7.68945C2.2 7.88945 2.1 8.08945 2.1 8.28945V8.48945C2.1 8.58945 2.1 8.78945 2.1 8.88945C2 8.98945 2 9.18945 2 9.38945C2.4 14.1894 8.6 20.3894 12 20.3894C15.4 20.3894 21.6 14.0894 22 9.38945C22 9.18945 22 9.08945 22 8.88945C22 8.78945 22 8.58945 22 8.48945V8.18945C22 8.08945 21.9 7.78945 21.9 7.58945C21.7 6.98945 21.4 6.38945 21 5.88945C20.6 5.48945 20.6 4.88945 21 4.48945C21.4 4.08945 22 4.08945 22.4 4.48945C22.4 4.48945 22.5 4.58945 22.6 4.68945C23.1 5.38945 23.6 6.18945 23.8 6.98945C23.9 7.28945 23.9 7.58945 24 7.88945V8.18945C24 8.38945 24 8.58945 24 8.88945C24 9.08945 24 9.28945 24 9.58945C23.5 15.4894 16.3 22.3894 12 22.3894Z" fill="#FA7378"/>
</g>
</g>
<defs>
<clipPath id="clip0_1874_1976">
<rect width="24" height="24" fill="white" transform="translate(0 0.389404)"/>
</clipPath>
<clipPath id="clip1_1874_1976">
<rect width="24" height="24" fill="white" transform="translate(0 0.389404)"/>
</clipPath>
</defs>
</svg>
