<svg width="28" height="28" viewBox="0 0 28 28" fill="none" xmlns="http://www.w3.org/2000/svg">
<path d="M11.0334 20.6362V19.4342H12.1584C12.3076 19.4342 12.4507 19.375 12.5562 19.2695C12.6616 19.164 12.7209 19.021 12.7209 18.8717V16.6218C12.7209 16.4725 12.6616 16.3295 12.5562 16.224C12.4507 16.1185 12.3076 16.0593 12.1584 16.0593H5.97093C5.82175 16.0593 5.67867 16.1185 5.57319 16.224C5.4677 16.3295 5.40843 16.4725 5.40843 16.6218V18.8717C5.40843 19.021 5.4677 19.164 5.57319 19.2695C5.67867 19.375 5.82175 19.4342 5.97093 19.4342H6.53343V20.6391C3.05438 21.2494 1.23357 23.2372 0.971446 26.7045C0.965382 26.7818 0.975395 26.8594 1.00085 26.9326C1.02631 27.0058 1.06666 27.0729 1.11935 27.1297C1.17205 27.1866 1.23594 27.2319 1.30701 27.2627C1.37808 27.2937 1.45477 27.3094 1.53226 27.3092H16.2416C16.319 27.3092 16.3957 27.2932 16.4666 27.262C16.5376 27.231 16.6014 27.1855 16.6539 27.1286C16.7067 27.0719 16.7471 27.005 16.7726 26.9319C16.7982 26.8587 16.8084 26.7811 16.8024 26.7039C16.5397 23.2327 14.6508 21.2437 11.0334 20.6362ZM2.15888 26.1842C2.54645 23.4853 4.11412 22.0869 7.17017 21.6791C7.30529 21.6611 7.42926 21.5947 7.51907 21.4923C7.60887 21.3897 7.65839 21.258 7.65842 21.1217V18.8717C7.65842 18.7225 7.59916 18.5795 7.49368 18.474C7.38819 18.3685 7.24511 18.3092 7.09592 18.3092H6.53343V17.1842H11.5959V18.3092H10.4709C10.3217 18.3092 10.1787 18.3685 10.0732 18.474C9.96768 18.5795 9.90842 18.7225 9.90842 18.8717V21.1217C9.90839 21.2585 9.95816 21.3906 10.0484 21.4933C10.1387 21.5959 10.2633 21.6622 10.3989 21.6797C13.5872 22.0897 15.219 23.4881 15.6144 26.1842H2.15888ZM27.1811 0.474109L27.1772 0.471859L27.1732 0.465672C27.1395 0.433609 27.099 0.416172 27.0602 0.393672C27.0365 0.380172 27.0157 0.359359 26.9903 0.349235C26.9505 0.333485 26.9088 0.331235 26.8667 0.325047C26.8368 0.320547 26.8082 0.309297 26.7778 0.30986C26.7401 0.310422 26.7041 0.32336 26.667 0.331235C26.6332 0.338547 26.5989 0.339672 26.5668 0.353172C26.5308 0.368359 26.501 0.395922 26.4684 0.418984C26.4408 0.438109 26.4099 0.449359 26.3857 0.474109L26.3829 0.478609L26.3778 0.481984L23.4084 3.57516V0.871795C23.4082 0.775068 23.3832 0.680009 23.3356 0.595781C23.288 0.511554 23.2196 0.440998 23.1368 0.390917C23.054 0.340836 22.9599 0.312917 22.8631 0.309853C22.7665 0.306789 22.6706 0.328682 22.5849 0.373422C21.398 0.994982 19.5272 2.26117 17.8363 3.95203C14.544 7.24434 13.0792 11.0423 14.2166 13.0212C14.216 13.0589 14.2267 13.0949 14.2335 13.1326L12.8778 14.545C12.7787 14.6534 12.726 14.7963 12.7308 14.943C12.7356 15.0898 12.7976 15.2288 12.9036 15.3305C13.0096 15.4321 13.1512 15.4884 13.298 15.487C13.4448 15.4857 13.5854 15.427 13.6895 15.3235L15.0457 13.9111C15.5762 14.2002 16.2033 14.3515 16.9031 14.3515C18.8077 14.3515 21.1961 13.3132 23.2858 11.4124C23.3698 11.3361 23.4288 11.236 23.4549 11.1255C23.481 11.015 23.473 10.8992 23.432 10.7933C23.3911 10.6874 23.319 10.5963 23.2254 10.5322C23.1317 10.468 23.0207 10.4337 22.9072 10.4337H18.3836L19.4642 9.30814L19.4709 9.30926H24.5947C24.6685 9.30928 24.7418 9.29474 24.8099 9.26648C24.8782 9.23822 24.9402 9.1968 24.9925 9.14456C25.0447 9.09233 25.0862 9.03031 25.1145 8.96205C25.1427 8.8938 25.1573 8.82065 25.1573 8.74677C25.1573 8.67289 25.1427 8.59974 25.1145 8.53148C25.0862 8.46323 25.0447 8.40121 24.9925 8.34897C24.9402 8.29674 24.8782 8.25532 24.8099 8.22706C24.7418 8.1988 24.6685 8.18425 24.5947 8.18427H20.543L21.6388 7.04296C21.6669 7.0469 21.6917 7.05927 21.7209 7.05927H26.2316C26.3305 7.05925 26.4277 7.03314 26.5133 6.98356C26.5989 6.93398 26.67 6.8627 26.7193 6.7769C28.1935 4.20516 28.3791 1.67223 27.1811 0.474109ZM18.6317 4.74797C19.7387 3.64938 20.9633 2.67601 22.2834 1.84548V4.74685L15.0868 12.2439C14.5428 10.7875 15.7055 7.67409 18.6317 4.74797ZM21.3131 11.5587C19.2026 13.0494 17.1112 13.4977 15.867 13.0555L17.3036 11.5587H21.3131ZM25.8997 5.93427H22.703L26.6855 1.78586C27.032 2.73028 26.7474 4.33735 25.8997 5.93427Z" fill="#6EC878"/>
</svg>
