<svg width="24" height="25" viewBox="0 0 24 25" fill="none" xmlns="http://www.w3.org/2000/svg">
<g clip-path="url(#clip0_1874_2038)">
<g clip-path="url(#clip1_1874_2038)">
<path d="M7.5 3.38965C4.4565 3.38965 1.959 5.67865 1.5795 8.61865C1.52655 8.87223 1.49991 9.1306 1.5 9.38965C1.5 12.8186 4.119 15.9101 6.618 18.2096C9.117 20.5106 11.61 22.0316 11.61 22.0316L12 22.2686L12.39 22.0316C12.39 22.0316 13.3545 21.4166 14.5935 20.4986C15.444 21.1556 16.11 21.5681 16.11 21.5681L16.5 21.8081L16.89 21.5681C16.89 21.5681 18.258 20.7386 19.632 19.4741C21.006 18.2081 22.5 16.4996 22.5 14.4671C22.5 14.3021 22.4805 14.1581 22.455 14.0216C22.3791 13.443 22.1623 12.8918 21.8235 12.4166C22.2375 11.4476 22.5 10.4336 22.5 9.38965C22.4993 9.13362 22.4726 8.87832 22.4205 8.62765C22.044 5.68465 19.5465 3.38965 16.5 3.38965C14.637 3.38965 13.095 4.36165 12 5.69965C10.905 4.36015 9.363 3.38965 7.5 3.38965ZM7.5 4.88965C9.15 4.88965 10.569 5.78215 11.355 7.10815L12 8.18965L12.645 7.10665C13.0383 6.43294 13.6011 5.87386 14.2774 5.48494C14.9536 5.09602 15.7199 4.89079 16.5 4.88965C17.5947 4.88975 18.6513 5.2914 19.4696 6.01849C20.2879 6.74558 20.8111 7.74759 20.94 8.83465L20.9445 8.86765L20.9535 8.90065C20.9835 9.03565 21 9.19465 21 9.38965C21 10.0256 20.8365 10.6781 20.607 11.3321C20.0917 11.0451 19.5123 10.8929 18.9225 10.8896C17.9475 10.8896 17.1465 11.3696 16.503 12.0056C15.858 11.3666 15.054 10.8896 14.0775 10.8896C13.2104 10.8928 12.3741 11.211 11.7242 11.7849C11.0743 12.3589 10.6552 13.1496 10.545 14.0096C10.5154 14.1603 10.5003 14.3135 10.5 14.4671C10.5 16.4996 11.994 18.2081 13.368 19.4741L13.4085 19.5086C12.7215 20.0051 12.222 20.3366 12.018 20.4641C11.688 20.2586 9.822 19.1246 7.632 17.1086C5.256 14.9246 3 12.0146 3 9.38965C3 9.19015 3.021 9.02965 3.0495 8.89765L3.0555 8.86465L3.0615 8.83015C3.19107 7.74403 3.71438 6.74312 4.53236 6.01692C5.35033 5.29073 6.40618 4.88966 7.5 4.88965ZM14.0775 12.3896C14.838 12.3896 15.4935 12.8006 15.858 13.4156L16.503 14.4986L17.148 13.4156C17.511 12.8006 18.159 12.3896 18.9225 12.3896C19.9875 12.3896 20.8425 13.1831 20.97 14.2121L20.973 14.2421L20.979 14.2706C20.9929 14.3347 20.9999 14.4 21 14.4656C21 15.6956 19.869 17.2181 18.618 18.3686C17.562 19.3406 16.803 19.7951 16.5 19.9886C16.1955 19.7951 15.438 19.3406 14.382 18.3686C13.131 17.2196 12 15.6941 12 14.4671C12 14.3831 12.006 14.3246 12.018 14.2721L12.027 14.2421L12.03 14.2091C12.0889 13.7075 12.3299 13.2451 12.7074 12.9096C13.0849 12.5742 13.5725 12.3891 14.0775 12.3896Z" fill="#FA7378"/>
</g>
</g>
<defs>
<clipPath id="clip0_1874_2038">
<rect width="24" height="24" fill="white" transform="translate(0 0.389648)"/>
</clipPath>
<clipPath id="clip1_1874_2038">
<rect width="24" height="24" fill="white" transform="translate(0 0.389648)"/>
</clipPath>
</defs>
</svg>
