<svg width="49" height="49" viewBox="0 0 49 49" fill="none" xmlns="http://www.w3.org/2000/svg">
<g clip-path="url(#clip0_1874_1640)">
<g clip-path="url(#clip1_1874_1640)">
<g clip-path="url(#clip2_1874_1640)">
<path fill-rule="evenodd" clip-rule="evenodd" d="M47.3984 0.289795C48.1984 0.289795 48.8984 0.989795 48.8984 1.78979V40.5898C48.8984 44.7898 45.4984 48.2898 41.1984 48.2898H2.39844C1.59844 48.2898 0.898438 47.5898 0.898438 46.7898V1.78979C0.898438 0.989795 1.59844 0.289795 2.39844 0.289795H47.3984ZM24.8984 12.2898C23.7984 12.2898 22.8984 13.1898 22.8984 14.2898V33.4898V33.6898C22.9984 34.6898 23.7984 35.4898 24.8984 35.4898C25.9984 35.4898 26.8984 34.5898 26.8984 33.4898V14.2898V14.1898C26.7984 13.0898 25.8984 12.2898 24.8984 12.2898ZM17.8984 17.3898C16.7984 17.3898 15.8984 18.2898 15.8984 19.3898V29.8898V29.9898C15.9984 30.9898 16.7984 31.8898 17.8984 31.8898C18.9984 31.8898 19.8984 30.9898 19.8984 29.8898V19.3898V19.2898C19.7984 18.1898 18.8984 17.3898 17.8984 17.3898ZM31.8984 17.3898C30.7984 17.3898 29.8984 18.2898 29.8984 19.3898V29.8898V29.9898C29.9984 30.9898 30.7984 31.8898 31.8984 31.8898C32.9984 31.8898 33.8984 30.9898 33.8984 29.8898V19.3898V19.2898C33.7984 18.1898 32.8984 17.3898 31.8984 17.3898Z" fill="#5D5D5D"/>
</g>
</g>
</g>
<defs>
<clipPath id="clip0_1874_1640">
<rect width="48" height="48" fill="white" transform="translate(0.898438 0.289795)"/>
</clipPath>
<clipPath id="clip1_1874_1640">
<rect width="48" height="48" fill="white" transform="translate(0.898438 0.289795)"/>
</clipPath>
<clipPath id="clip2_1874_1640">
<rect width="48" height="48" fill="white" transform="translate(0.898438 0.289795)"/>
</clipPath>
</defs>
</svg>
