<svg width="20" height="21" viewBox="0 0 20 21" fill="none" xmlns="http://www.w3.org/2000/svg">
<path d="M17.609 8.04077H19.389C19.5787 8.79731 19.6793 9.58821 19.6793 10.403C19.6793 15.7585 15.3376 20.1002 9.98217 20.1002L9.79817 20.0979C7.23997 20.0526 4.80414 18.9949 3.02442 17.1568V19.9608H1.31014V14.3893H6.293V16.1036L4.78328 16.1048C6.04385 17.4442 7.77414 18.2008 10.0165 18.3853L10.1262 18.3842L10.2382 18.3813L10.3702 18.3762L10.4016 18.3745L10.4359 18.3728L10.4725 18.3705L10.5022 18.3688L10.4799 18.3699L10.517 18.3676C10.6467 18.359 10.7759 18.3476 10.9039 18.3333L10.917 18.3316L10.9227 18.3305L10.9359 18.3282L10.9565 18.3259L11.0519 18.3145L11.0462 18.315L11.0536 18.3145L11.0839 18.3093L11.0907 18.3082L11.1302 18.3036L11.2136 18.291L11.1965 18.2939L11.2325 18.2876L11.3273 18.2722L11.2879 18.279L11.309 18.2756L11.4039 18.259L11.4856 18.2442L11.5313 18.2345L11.4959 18.2425L11.5799 18.2253L11.657 18.2093L11.7113 18.1973L11.7433 18.1905L11.7622 18.1859L11.8256 18.1716L11.9033 18.1528L11.8239 18.1716L11.9153 18.1499L11.9462 18.1419L11.9867 18.1316L12.0285 18.1208L12.0656 18.1105L12.0867 18.1048L12.101 18.1008L12.1559 18.0859L12.2125 18.0693L12.2485 18.059L12.2856 18.0476L12.3256 18.0362L12.3605 18.0248L12.4039 18.0116L12.4896 17.9842L12.5685 17.9573L12.6427 17.9316L12.6587 17.9259L12.7296 17.9002L12.781 17.8808L12.8313 17.8619L12.869 17.8476L12.8925 17.8385L12.9376 17.8208L12.977 17.8048L13.025 17.7848L13.0307 17.7825L13.073 17.7648L13.0839 17.7602L13.1656 17.7253L13.201 17.7099L13.2536 17.6865L13.2793 17.675L13.289 17.6705L13.3462 17.6442L13.3519 17.6413L13.4033 17.6173L13.4799 17.5802L13.4913 17.5745L13.557 17.5425L13.5942 17.5236L13.6565 17.491L13.6702 17.4842C13.7645 17.4352 13.8579 17.3843 13.9502 17.3316L13.9096 17.3533L13.9525 17.3299L14.0062 17.2979L13.9753 17.3156L14.0147 17.2928L14.0365 17.2813L14.1713 17.1996L14.1182 17.231L14.2325 17.1613L14.3079 17.1128L14.4193 17.0396L14.4519 17.0179L14.509 16.9785L14.549 16.9499L14.5776 16.931L14.5885 16.923L14.613 16.9053L14.6445 16.883L14.7113 16.8345L14.7227 16.8259L14.7742 16.7876L14.7816 16.7819L14.8513 16.7293L14.8587 16.723L14.8959 16.6939L14.985 16.6236L15.1165 16.515L15.1805 16.4613L15.2165 16.4293L15.229 16.4179L15.2393 16.4093C15.321 16.3385 15.3982 16.2682 15.4736 16.1968L15.5787 16.095L15.6816 15.9922L15.7296 15.9425L15.7776 15.8928L15.8342 15.8328L15.8919 15.7693L15.9227 15.735L15.941 15.715L15.9496 15.7053L15.9616 15.691L16.0039 15.643L16.049 15.591L16.0559 15.583L16.097 15.5339L16.1073 15.5225L16.1193 15.5082L16.1702 15.4448L16.1553 15.4642L16.1742 15.4408L16.2119 15.395L16.2673 15.3253L16.2679 15.323L16.2885 15.2968L16.3073 15.2739L16.2673 15.3253C16.3336 15.2402 16.3987 15.1539 16.4616 15.0665L16.4936 15.0208L16.5113 14.9968L16.5605 14.9265L16.5353 14.9613L16.6587 14.7802C16.7466 14.6467 16.8305 14.5107 16.9102 14.3722L16.9365 14.3236L16.9936 14.2219C17.1467 13.9414 17.2827 13.6519 17.401 13.355L17.4485 13.2339C17.5432 12.9837 17.6252 12.7289 17.6942 12.4705L17.7319 12.3253C17.8875 11.6966 17.9656 11.0513 17.9645 10.4036L17.9627 10.2248C17.947 9.48371 17.8279 8.74898 17.609 8.04077ZM10.8873 6.11277V7.08991C11.1347 7.13105 11.3947 7.1882 11.6645 7.25963L11.8182 7.30191L11.353 8.95161L11.0633 8.87391L10.8005 8.80991L10.5627 8.76021C9.66156 8.58881 9.34157 8.74301 9.29527 9.09051C9.29247 9.11221 9.30447 9.14021 9.33467 9.17561L9.38047 9.22131L9.44557 9.27391L9.53127 9.33391L9.63986 9.40131L9.77297 9.47621L9.93187 9.55901L10.1176 9.65051L10.3325 9.74931L10.6942 9.90931C11.8479 10.4253 12.4427 10.947 12.4427 11.991C12.4427 13.0042 11.7936 13.7899 10.8873 14.0768V15.0659H9.17297V14.0373L9.08727 14.007L9.01126 13.9779L8.83987 13.9065L8.64557 13.8179L8.42617 13.7122L8.18266 13.5893L7.76957 13.3722L7.461 13.2053L8.28446 11.7019L8.56326 11.8528L8.81647 11.987L9.04387 12.1042L9.24446 12.2042L9.41817 12.287L9.56497 12.3522L9.68327 12.3996C10.3096 12.6316 10.7285 12.3682 10.7285 11.991C10.7285 11.8928 10.6245 11.783 10.2759 11.607L10.0976 11.5213L9.76157 11.3716C8.15647 10.667 7.43585 10.0728 7.59585 8.86481C7.72957 7.86134 8.29016 7.28191 9.17247 7.08306V6.11277H10.8873ZM18.293 0.675049V6.24648H13.3102V4.5322H15.0159C13.817 3.34363 12.2176 2.65048 10.185 2.44305L9.94897 2.42134L9.81357 2.42305L9.67467 2.42705L9.60447 2.42991L9.56157 2.4322L9.51757 2.43448L9.42957 2.4402L9.32497 2.44763L9.23987 2.45505L9.15816 2.46305L9.08957 2.47048L8.90497 2.49334L8.72217 2.5202L8.63817 2.53391L8.67187 2.5282L8.59647 2.54077L8.56847 2.54591L8.52157 2.55448L8.37987 2.58191L8.21247 2.61791L8.16957 2.6282L8.04047 2.65905C7.96892 2.67711 7.89768 2.69616 7.8267 2.7162L7.849 2.70934L7.80099 2.72305L7.73242 2.74305L7.64671 2.7682L7.63185 2.77277L7.61357 2.77848L7.53357 2.80363L7.39927 2.8482C7.24243 2.90179 7.08731 2.9603 6.93414 3.02363L6.91528 3.03105L6.901 3.03677L6.89128 3.04134L6.849 3.05848L6.83014 3.06763L6.78785 3.08648L6.75014 3.10305L6.68842 3.13048L6.67585 3.1362L6.6187 3.16248L6.53699 3.20077L6.4587 3.23905L6.4347 3.25048L6.39242 3.2722L6.35927 3.28877L6.30727 3.31563L6.27357 3.33277L6.245 3.34877L6.22214 3.3602L6.20842 3.36763L6.18957 3.37791L6.16728 3.39048C6.04471 3.4572 5.92389 3.52713 5.805 3.6002L5.793 3.60763L5.74157 3.63963L5.67871 3.67963C5.62805 3.7122 5.57776 3.74534 5.52785 3.77905L5.51757 3.78591L5.45757 3.82591L5.41528 3.85563L5.445 3.83563L5.32328 3.92134L5.313 3.92877L5.26042 3.96705L5.19814 4.01334L5.19128 4.01848L5.17642 4.02991L5.05071 4.12648C4.99254 4.17235 4.93501 4.21902 4.87814 4.26648L4.84785 4.29163L4.79071 4.34077L4.77242 4.35563L4.60671 4.50305C4.43075 4.66348 4.262 4.83164 4.10099 5.00705L3.945 5.18191C3.91871 5.21163 3.89356 5.24191 3.86727 5.27277L3.85585 5.28648L3.80441 5.34934L3.75241 5.4122L3.72327 5.44934L3.69185 5.48877L3.64328 5.55163L3.60728 5.59963L3.60328 5.60534L3.59584 5.61391L3.56328 5.65791L3.55414 5.67048L3.50042 5.7442L3.47414 5.78077L3.45184 5.81163L3.43928 5.83048L3.40328 5.88191L3.37928 5.9162L3.35699 5.94991L3.34842 5.96248L3.31527 6.0122L3.30728 6.02534L3.2707 6.08134L3.24784 6.11677L3.24385 6.12248L3.14614 6.28077L3.02727 6.4842L2.91414 6.69163L2.85642 6.80363L2.84613 6.82305L2.81527 6.88534L2.84499 6.82591L2.77241 6.97448C2.74505 7.03206 2.71838 7.08997 2.69241 7.1482L2.681 7.17448L2.67584 7.18477L2.669 7.20077C2.41551 7.77877 2.23193 8.38496 2.12214 9.00651L2.09585 9.16361C2.03184 9.57381 1.99993 9.98841 2.00042 10.4036C2.00042 11.2219 2.12384 12.0116 2.35241 12.7556H0.573565C0.382125 11.9861 0.285595 11.196 0.286135 10.403C0.286135 9.75161 0.350135 9.11561 0.472415 8.50021C1.35642 4.0562 5.27814 0.705909 9.98267 0.705909C12.5302 0.705909 14.8485 1.68877 16.5787 3.29563V0.675049H18.293Z" fill="#6EC878"/>
</svg>
