<svg width="24" height="25" viewBox="0 0 24 25" fill="none" xmlns="http://www.w3.org/2000/svg">
<g clip-path="url(#clip0_1874_1995)">
<path d="M6 22.3894C5.7 22.3894 5.5 22.2894 5.3 22.0894L2.3 19.0894C1.9 18.6894 1.9 18.0894 2.3 17.6894L17.3 2.6894C17.7 2.2894 18.3 2.2894 18.7 2.6894L21.7 5.6894C22.1 6.0894 22.1 6.6894 21.7 7.0894L6.7 22.0894C6.5 22.2894 6.3 22.3894 6 22.3894ZM4.4 18.3894L6 19.9894L19.6 6.3894L18 4.7894L4.4 18.3894Z" fill="#828CFF"/>
<path d="M18 10.3894C17.7 10.3894 17.5 10.2894 17.3 10.0894L14.3 7.0894C13.9 6.6894 13.9 6.0894 14.3 5.6894C14.7 5.2894 15.3 5.2894 15.7 5.6894L18.7 8.6894C19.1 9.0894 19.1 9.6894 18.7 10.0894C18.5 10.2894 18.3 10.3894 18 10.3894ZM9 8.3894C8.4 8.3894 8 7.9894 8 7.3894C8 6.7894 7.6 6.3894 7 6.3894C6.4 6.3894 6 5.9894 6 5.3894C6 4.7894 6.4 4.3894 7 4.3894C7.6 4.3894 8 3.9894 8 3.3894C8 2.7894 8.4 2.3894 9 2.3894C9.6 2.3894 10 2.7894 10 3.3894C10 3.9894 10.4 4.3894 11 4.3894C11.6 4.3894 12 4.7894 12 5.3894C12 5.9894 11.6 6.3894 11 6.3894C10.4 6.3894 10 6.7894 10 7.3894C10 7.9894 9.6 8.3894 9 8.3894ZM19 18.3894C18.4 18.3894 18 17.9894 18 17.3894C18 16.7894 17.6 16.3894 17 16.3894C16.4 16.3894 16 15.9894 16 15.3894C16 14.7894 16.4 14.3894 17 14.3894C17.6 14.3894 18 13.9894 18 13.3894C18 12.7894 18.4 12.3894 19 12.3894C19.6 12.3894 20 12.7894 20 13.3894C20 13.9894 20.4 14.3894 21 14.3894C21.6 14.3894 22 14.7894 22 15.3894C22 15.9894 21.6 16.3894 21 16.3894C20.4 16.3894 20 16.7894 20 17.3894C20 17.9894 19.6 18.3894 19 18.3894Z" fill="#828CFF"/>
</g>
<defs>
<clipPath id="clip0_1874_1995">
<rect width="24" height="24" fill="white" transform="translate(0 0.389404)"/>
</clipPath>
</defs>
</svg>
